<svg version="1.1" id="Layer_1" xmlns="http://www.w3.org/2000/svg" xmlns:xlink="http://www.w3.org/1999/xlink" x="0px" y="0px"
	 width="100%" viewBox="0 0 496 496" enable-background="new 0 0 496 496" xml:space="preserve">
<path fill="#000000" opacity="1.000000" stroke="none" 
	d="
M253.150665,238.366669 
	C255.111542,229.357666 256.933197,220.748306 258.771423,212.142456 
	C259.176208,210.247421 259.850769,208.332123 262.280579,208.920685 
	C264.802643,209.531601 263.651093,211.615219 263.339508,213.069214 
	C257.353668,241.001953 251.310425,268.922363 245.280960,296.845764 
	C244.951477,298.371674 244.532089,300.025513 242.522690,299.602020 
	C239.490158,298.962952 240.506577,296.563873 240.893906,294.751404 
	C244.537399,277.702393 248.260742,260.670380 251.960983,243.633469 
	C252.313263,242.011536 252.665253,240.389526 253.150665,238.366669 
z"/>
<path fill="#000000" opacity="1.000000" stroke="none" 
	d="
M283.906494,233.089264 
	C290.062897,239.213226 295.875610,245.186554 301.912018,250.924561 
	C304.651855,253.528976 304.401733,255.397263 301.797150,257.908386 
	C295.081024,264.383575 288.595032,271.096802 281.950745,277.647644 
	C280.507660,279.070465 278.937225,281.570679 276.588776,279.388885 
	C274.080841,277.058929 276.719543,275.565338 278.158020,274.159454 
	C284.685272,267.780212 291.278931,261.468903 298.762390,254.251938 
	C291.864349,247.704529 285.613892,241.993958 279.663727,235.986008 
	C277.923767,234.229156 273.705261,232.175919 276.453156,229.347946 
	C279.798279,225.905334 280.986450,231.321991 283.303894,232.489090 
	C283.444336,232.559830 283.538452,232.722626 283.906494,233.089264 
z"/>
<path fill="#000000" opacity="1.000000" stroke="none" 
	d="
M224.056244,279.181824 
	C215.734650,270.811493 207.698196,262.675751 198.762955,253.630081 
	C204.652649,248.023209 210.417801,242.569946 216.139694,237.071655 
	C218.657944,234.651825 221.057693,232.108780 223.571655,229.684311 
	C224.767838,228.530670 226.078247,227.189911 227.785782,228.982986 
	C229.191345,230.459000 228.321167,231.803680 227.289444,232.930664 
	C225.270615,235.135880 223.199219,237.301743 221.033722,239.362122 
	C216.111801,244.045105 211.119736,248.654373 205.616989,253.797577 
	C212.318878,260.525391 218.140610,266.373077 223.967346,272.215790 
	C225.024429,273.275818 226.131958,274.287018 227.160995,275.373077 
	C228.077896,276.340729 229.144958,277.387604 228.169754,278.843018 
	C227.163132,280.345337 225.818985,280.568481 224.056244,279.181824 
z"/>
<path fill="#000000" opacity="1.000000" stroke="none" 
	d="
M199.297699,126.638054 
	C198.629517,124.873878 198.160614,123.455078 197.617462,122.065277 
	C196.359665,118.846809 194.263809,115.703705 199.767273,113.977547 
	C205.689377,112.120087 207.040466,112.461456 209.135056,118.111755 
	C211.615509,124.802963 210.288773,127.173088 203.410782,128.808899 
	C201.434738,129.278870 200.186203,128.897964 199.297699,126.638054 
z"/>
<path fill="#000000" opacity="1.000000" stroke="none" 
	d="
M144.509827,176.733902 
	C139.539398,176.510391 136.567444,173.102020 133.424225,170.363327 
	C130.902328,168.165985 133.985916,166.241898 135.071838,164.443924 
	C136.039871,162.841187 136.918228,160.353470 139.374542,161.046509 
	C142.255142,161.859238 140.006790,163.985291 139.942108,165.563187 
	C142.041046,164.696533 148.771179,166.512711 149.494186,168.144516 
	C150.154953,169.635864 149.084702,170.667953 148.353577,171.729248 
	C147.225754,173.366394 146.008026,174.941589 144.509827,176.733902 
z"/>
<path fill="#000000" opacity="1.000000" stroke="none" 
	d="
M239.909851,105.769379 
	C247.384903,105.415833 251.024918,110.756989 248.358078,117.444733 
	C247.569992,119.421051 246.054840,120.198723 244.087921,120.278404 
	C241.595688,120.379364 238.997986,120.653351 237.254150,118.273163 
	C235.373093,115.705688 236.809631,107.925285 239.909851,105.769379 
z"/>
<path fill="#000000" opacity="1.000000" stroke="none" 
	d="
M268.832642,109.260384 
	C268.737152,111.143250 268.487701,112.616974 268.395386,114.100479 
	C268.030548,119.963417 267.174255,120.605690 261.521423,120.396919 
	C256.443787,120.209381 256.070251,117.257156 256.574249,113.276169 
	C256.944458,110.351852 256.272339,106.781822 260.136902,105.958298 
	C263.323486,105.279243 266.904449,104.883560 268.832642,109.260384 
z"/>
<path fill="#000000" opacity="1.000000" stroke="none" 
	d="
M304.251343,129.554749 
	C301.166168,131.540665 301.166168,131.540665 299.231018,126.049156 
	C297.348389,125.894371 296.377930,129.686050 294.238220,127.558945 
	C292.458099,125.789307 294.219604,123.859634 294.881897,122.071342 
	C295.283264,120.987610 295.686401,119.887650 296.247498,118.883713 
	C297.215881,117.151047 297.106354,114.104073 300.111725,114.563385 
	C303.025513,115.008690 306.102936,115.843994 307.697632,118.683578 
	C309.132050,121.237755 308.001862,123.506409 305.941772,125.252823 
	C304.665771,126.334503 304.295654,127.657974 304.251343,129.554749 
z"/>
<path fill="#000000" opacity="1.000000" stroke="none" 
	d="
M166.003708,132.891724 
	C170.367813,132.317978 175.549774,136.260635 176.132797,140.459488 
	C176.780319,145.123001 172.811340,146.491562 169.910782,148.545364 
	C169.188309,149.056931 168.192490,149.120087 167.623703,148.409714 
	C165.142960,145.311539 161.927185,142.449951 160.588531,138.895950 
	C159.429489,135.818756 163.649124,134.806778 166.003708,132.891724 
M166.813202,138.296249 
	C166.193863,139.316864 166.686630,140.215790 167.233887,141.012283 
	C168.028076,142.168213 168.781998,143.950256 170.592285,142.610214 
	C172.305389,141.342117 171.172028,140.006439 170.167084,138.888016 
	C169.405792,138.040756 168.582748,137.147781 166.813202,138.296249 
z"/>
<path fill="#000000" opacity="1.000000" stroke="none" 
	d="
M283.785400,120.512299 
	C285.615479,120.945671 287.247253,121.286407 286.521423,123.433884 
	C286.025085,124.902412 284.709991,124.655014 283.562347,124.425026 
	C281.611877,124.034164 279.653381,123.650284 277.740936,123.111778 
	C275.558655,122.497284 274.963409,120.958130 275.592194,118.846947 
	C276.207184,116.782219 277.108307,114.741219 277.325500,112.632301 
	C277.778168,108.236725 280.261810,107.898994 283.582153,109.178452 
	C285.762177,110.018509 290.027344,109.299095 288.803040,113.332344 
	C287.897125,116.316650 287.815979,122.317551 281.360107,118.313156 
	C281.470703,120.281029 282.797668,119.924706 283.785400,120.512299 
z"/>
<path fill="#000000" opacity="1.000000" stroke="none" 
	d="
M325.795410,131.867813 
	C323.346893,132.802200 323.521332,134.733810 323.127869,136.492264 
	C322.635620,138.692169 320.858032,139.916214 318.749908,139.799347 
	C316.010925,139.647476 313.664520,138.208252 312.277252,135.800308 
	C311.302277,134.108047 311.299408,132.280762 313.473724,131.211487 
	C314.303162,130.803589 314.568542,130.083267 314.626495,129.196411 
	C314.850159,125.772964 316.662109,123.722107 320.088745,124.609383 
	C323.427216,125.473854 326.911743,126.849922 325.795410,131.867813 
z"/>
<path fill="#000000" opacity="1.000000" stroke="none" 
	d="
M177.849609,126.929642 
	C177.974731,124.331703 179.777008,123.525887 181.382706,122.817970 
	C183.340057,121.955032 185.751511,119.215797 187.511032,121.707451 
	C189.613342,124.684547 185.027237,124.739388 184.188370,126.692116 
	C186.072830,127.264496 188.581131,124.006195 189.797424,127.106857 
	C190.890900,129.894424 187.097275,129.886856 186.186127,131.698212 
	C186.426819,131.806183 186.684921,132.030685 186.904541,131.997864 
	C188.915970,131.697144 191.104813,128.098083 192.774597,131.276047 
	C194.271164,134.124329 190.638901,134.696350 188.914093,135.952866 
	C185.201508,138.657440 182.700699,137.840500 181.103653,133.466949 
	C180.317154,131.313126 178.983536,129.359085 177.849609,126.929642 
z"/>
<path fill="#000000" opacity="1.000000" stroke="none" 
	d="
M137.421860,182.381226 
	C139.006256,183.191971 140.103973,183.976288 139.377365,185.612015 
	C138.648468,187.252838 137.338074,186.956009 136.012482,186.437958 
	C134.913666,186.008499 133.776947,185.489273 133.061310,187.018661 
	C132.376419,188.482300 133.510345,189.110565 134.390350,189.827499 
	C135.613052,190.823669 136.752106,191.861267 135.440201,193.519104 
	C134.295197,194.966064 133.063644,194.050354 131.897522,193.483871 
	C129.518661,192.328247 127.124886,191.198029 124.793518,189.952072 
	C123.525177,189.274246 121.849388,188.619934 122.504364,186.685486 
	C123.046227,185.085129 124.470436,185.210434 125.850494,185.482056 
	C126.999275,185.708160 128.184616,185.924835 128.805954,184.603882 
	C129.393631,182.021301 124.190521,181.340317 126.510513,178.913559 
	C128.885574,176.429184 131.209808,179.709244 133.540741,180.466736 
	C134.785049,180.871094 135.918884,181.615326 137.421860,182.381226 
z"/>
<path fill="#000000" opacity="1.000000" stroke="none" 
	d="
M387.451599,237.430862 
	C382.314026,243.201645 389.668182,240.624695 390.400604,242.473740 
	C388.204773,244.639984 379.186798,246.876831 377.420441,245.390060 
	C374.976868,243.333221 375.350220,240.292801 375.582520,237.492905 
	C375.814728,234.693710 378.162445,233.751266 380.256927,234.094986 
	C383.393219,234.609650 386.370758,234.374176 389.322937,233.562195 
	C390.624054,235.862900 388.679199,236.301544 387.451599,237.430862 
z"/>
<path fill="#000000" opacity="1.000000" stroke="none" 
	d="
M207.448853,382.010925 
	C206.508560,384.094299 206.325943,386.310669 203.515091,386.936829 
	C203.578033,379.381470 199.281601,381.460266 195.186676,383.554169 
	C195.115112,379.115723 199.215607,372.233002 202.558548,371.260956 
	C205.408554,370.432190 207.643280,371.713928 208.010269,374.699036 
	C208.287155,376.951324 207.728851,379.306366 207.448853,382.010925 
z"/>
<path fill="#000000" opacity="1.000000" stroke="none" 
	d="
M330.107300,359.727905 
	C332.805603,361.787750 334.189270,357.042572 337.012634,358.861328 
	C338.316467,362.081085 332.928680,362.362946 333.515686,365.458893 
	C337.011139,366.844116 338.075562,361.162079 342.106049,363.416351 
	C340.240082,366.869385 337.309631,368.922760 333.911285,370.293884 
	C332.927429,370.690796 325.154419,361.034119 325.573608,359.666595 
	C326.783295,355.720306 330.356201,354.361267 333.818848,352.538727 
	C335.472870,356.846771 330.718079,356.965881 330.107300,359.727905 
z"/>
<path fill="#000000" opacity="1.000000" stroke="none" 
	d="
M218.809540,109.334053 
	C220.758209,111.656128 220.152420,114.406281 221.238785,116.675179 
	C221.836731,117.924019 222.595581,118.588348 223.914673,118.290878 
	C225.451904,117.944206 225.418610,116.802101 225.105850,115.543922 
	C224.625565,113.611794 224.187378,111.668236 223.779343,109.719467 
	C223.500610,108.388184 223.964417,107.416939 225.367004,107.097496 
	C226.586441,106.819771 227.370483,107.588120 227.626648,108.561729 
	C228.377258,111.414581 229.496765,114.166702 229.433197,117.236801 
	C229.351242,121.194572 226.988770,122.139633 223.638702,122.594513 
	C220.202728,123.061058 218.193802,122.025658 217.492004,118.540764 
	C217.034744,116.270035 216.296478,114.056129 215.832672,111.786407 
	C215.402481,109.681129 216.144165,108.510452 218.809540,109.334053 
z"/>
<path fill="#000000" opacity="1.000000" stroke="none" 
	d="
M314.999023,380.562744 
	C313.458344,378.008789 312.084717,375.734406 310.859528,373.382690 
	C309.948975,371.634949 307.401398,369.745911 310.021637,367.826202 
	C312.731995,365.840454 315.972351,362.898041 319.407074,365.519623 
	C322.387939,367.794830 324.880402,371.682068 324.051971,375.378815 
	C323.199738,379.181763 319.364410,380.892273 314.999023,380.562744 
M320.428802,374.260010 
	C320.397522,372.319183 319.450470,370.693573 318.250336,369.358673 
	C316.722260,367.658997 314.700928,367.806244 313.727051,369.792419 
	C312.613129,372.064178 314.543182,373.922272 315.795990,375.546509 
	C317.347046,377.557373 318.956848,376.664795 320.428802,374.260010 
z"/>
<path fill="#000000" opacity="1.000000" stroke="none" 
	d="
M380.238556,218.356750 
	C380.569214,220.720154 381.950470,222.796936 380.277832,224.843338 
	C378.862671,226.574753 376.788727,227.120972 374.876923,226.474548 
	C371.655487,225.385345 371.501343,222.106949 371.148041,219.428055 
	C370.860138,217.244980 372.136597,215.631195 374.923096,216.080017 
	C376.246887,218.229767 373.046143,221.370071 377.120667,223.555847 
	C377.621185,219.254700 375.111053,212.458084 383.038147,213.878525 
	C386.450409,214.489960 386.448822,217.923508 386.455963,220.784119 
	C386.461914,223.158051 385.561951,224.570114 382.860565,223.897095 
	C383.176849,218.086502 383.176849,218.086502 380.238556,218.356750 
z"/>
<path fill="#000000" opacity="1.000000" stroke="none" 
	d="
M161.607880,358.466034 
	C161.980301,356.559082 163.089828,355.528992 164.073334,354.415100 
	C168.783234,349.080750 170.170441,348.775787 174.098450,352.218262 
	C177.700195,355.374786 177.484711,356.895905 173.006149,362.110535 
	C171.336746,364.054321 169.704102,366.226532 166.848511,365.120605 
	C164.079361,364.048126 161.343399,362.567871 161.607880,358.466034 
M165.377808,358.743652 
	C165.321823,360.845245 166.524857,362.011475 168.410095,361.508362 
	C170.561630,360.934235 171.795609,358.979065 172.518814,356.943756 
	C173.032928,355.496948 172.166443,354.305115 170.833405,353.813904 
	C168.813492,353.069641 167.946838,354.824829 166.910233,356.015656 
	C166.380081,356.624664 166.020294,357.381958 165.377808,358.743652 
z"/>
<path fill="#000000" opacity="1.000000" stroke="none" 
	d="
M158.551941,339.897278 
	C159.162476,342.941437 161.602432,341.412903 163.802673,342.456635 
	C161.226624,347.076508 157.370224,349.763824 152.459045,352.787262 
	C152.400223,348.106079 158.433716,345.646942 154.598480,341.295715 
	C151.541489,341.431580 150.481567,346.016357 145.857666,345.181854 
	C148.457321,340.593079 152.035843,337.640503 155.842102,335.715790 
	C158.638580,334.301697 158.100510,337.852448 158.551941,339.897278 
z"/>
<path fill="#000000" opacity="1.000000" stroke="none" 
	d="
M365.028931,334.757446 
	C366.048096,333.490112 366.641022,332.168243 369.005737,332.334808 
	C368.842438,336.323059 366.394684,338.807739 363.591766,340.875641 
	C362.489777,341.688660 352.279968,335.050232 352.382172,333.431213 
	C352.622528,329.624634 355.016113,327.033295 358.142303,324.901978 
	C360.864197,328.249512 354.898682,330.067383 357.222321,333.127869 
	C360.083038,333.382874 360.191376,329.032349 363.386292,329.563080 
	C364.927246,332.320465 360.694183,333.594666 361.584290,336.254333 
	C363.355621,337.943115 363.981567,336.140076 365.028931,334.757446 
z"/>
<path fill="#000000" opacity="1.000000" stroke="none" 
	d="
M386.172241,281.731720 
	C387.425354,282.468628 388.850067,282.538513 388.722382,284.129242 
	C385.469666,285.191437 382.505920,284.881897 374.840912,282.645477 
	C374.042816,279.845825 375.554382,277.266968 376.223083,274.670319 
	C376.761597,272.579102 378.937195,272.569611 380.820587,272.704315 
	C382.948059,272.856506 384.097107,273.972504 384.331177,276.128815 
	C384.535492,278.011230 383.718689,280.200745 386.172241,281.731720 
z"/>
<path fill="#000000" opacity="1.000000" stroke="none" 
	d="
M285.593140,389.858887 
	C286.129578,390.363525 286.651428,390.984039 286.528870,391.162872 
	C284.456329,394.186554 280.911011,393.670502 278.022491,394.101318 
	C275.233795,394.517273 275.943481,391.356445 275.391907,389.611877 
	C275.191833,388.979156 274.971680,388.348175 274.835236,387.700653 
	C273.144958,379.679230 275.328705,377.528931 284.228180,378.676422 
	C283.831635,382.598572 279.427124,380.786835 277.921295,383.189941 
	C279.172729,386.402222 282.660217,382.648682 284.284485,385.249115 
	C283.885315,388.385315 279.926727,386.957153 278.610718,389.419861 
	C280.755981,391.820770 283.095032,389.927246 285.593140,389.858887 
z"/>
<path fill="#000000" opacity="1.000000" stroke="none" 
	d="
M144.475159,326.577423 
	C143.123016,323.587372 141.785797,325.651215 140.510239,326.314087 
	C138.842499,327.180817 137.538605,329.124298 134.339737,327.618530 
	C137.839722,323.642242 142.140182,321.692780 146.054901,319.537659 
	C149.284195,321.765076 146.724899,324.564514 147.492096,326.428253 
	C148.627075,328.274445 150.753693,326.359650 151.889587,328.754791 
	C148.434891,331.802582 144.669357,334.505310 139.239563,336.520203 
	C140.231949,332.003235 144.836533,330.785065 144.475159,326.577423 
z"/>
<path fill="#000000" opacity="1.000000" stroke="none" 
	d="
M378.372253,264.016602 
	C375.820282,260.450287 376.592834,257.163513 377.686340,253.566940 
	C381.589386,255.308151 378.464050,259.449799 381.411224,261.104645 
	C383.852692,259.824341 381.893738,256.436615 384.267578,255.138336 
	C387.293396,256.056763 385.058350,259.527679 387.292847,261.019165 
	C390.381012,259.751556 387.432434,255.360031 390.876495,254.078842 
	C393.072632,256.833649 392.595367,260.057831 391.591583,262.859833 
	C390.676514,265.414215 387.815094,264.194641 385.786774,264.307648 
	C383.470093,264.436707 381.135132,264.237488 378.372253,264.016602 
z"/>
<path fill="#000000" opacity="1.000000" stroke="none" 
	d="
M381.894104,292.805786 
	C385.951202,294.127411 387.112793,296.230743 385.633789,300.139496 
	C384.107635,304.172974 381.765442,304.898193 377.896454,303.766602 
	C370.700958,301.662109 369.416809,299.926880 371.574921,294.411224 
	C373.962555,288.308990 377.986450,291.928589 381.894104,292.805786 
M374.903290,295.156250 
	C372.401459,299.089417 375.330261,299.809387 378.126312,300.753662 
	C380.236420,301.466278 382.157349,301.801025 382.580566,298.938202 
	C383.111450,295.347168 379.955688,295.353119 377.807373,294.547516 
	C377.131439,294.294006 376.228119,294.646912 374.903290,295.156250 
z"/>
<path fill="#000000" opacity="1.000000" stroke="none" 
	d="
M182.903351,370.099976 
	C182.870148,373.346466 184.336716,372.168060 185.706604,371.460693 
	C188.484116,370.026550 189.124146,366.638092 191.548813,364.954071 
	C193.189880,365.410431 193.316391,366.440247 192.822464,367.686279 
	C191.272385,371.596588 188.225433,374.207611 184.696274,376.079773 
	C182.225677,377.390381 180.067673,375.957550 179.132919,373.543213 
	C177.830856,370.180084 181.005844,363.280243 184.922974,360.689575 
	C186.703995,364.341675 182.504944,366.614838 182.903351,370.099976 
z"/>
<path fill="#000000" opacity="1.000000" stroke="none" 
	d="
M347.368896,353.745850 
	C343.653351,352.265137 340.612823,350.592499 339.021423,346.501160 
	C342.642548,345.602478 343.747742,348.656708 345.873596,349.434021 
	C347.217529,349.925415 348.630890,351.258392 349.944275,349.781158 
	C351.256561,348.305176 349.765961,347.026764 349.101227,345.792969 
	C348.079620,343.896759 345.185822,343.054138 345.843719,340.143066 
	C349.843323,340.554596 355.735718,347.789825 354.693970,351.324554 
	C353.625610,354.949799 351.050323,355.785095 347.368896,353.745850 
z"/>
<path fill="#000000" opacity="1.000000" stroke="none" 
	d="
M243.572998,392.222992 
	C244.782196,393.528687 246.409607,395.487549 244.004623,395.565125 
	C241.053146,395.660339 237.508041,396.495422 234.597061,394.076721 
	C240.842056,390.069519 240.887375,386.244507 235.449371,381.169495 
	C239.841110,380.696381 243.460556,378.492188 247.587265,382.723755 
	C241.755737,384.317780 241.650253,387.809601 243.572998,392.222992 
z"/>
<path fill="#000000" opacity="1.000000" stroke="none" 
	d="
M136.625305,305.623932 
	C136.764832,304.061768 137.307297,302.389557 138.580444,303.873474 
	C140.641525,306.275818 142.510040,309.078857 141.931442,312.729919 
	C134.516022,310.658630 132.992538,311.319489 130.106110,317.664856 
	C126.680290,314.901154 125.494957,312.129211 126.181435,307.868744 
	C130.451523,311.230072 133.958740,310.445740 136.625305,305.623932 
z"/>
<path fill="#000000" opacity="1.000000" stroke="none" 
	d="
M255.079086,389.305725 
	C254.599228,386.676514 254.118027,384.422821 255.781662,381.809357 
	C258.403534,384.983063 256.935760,389.646545 260.622803,391.990845 
	C264.485474,389.207916 261.848846,384.154114 263.946442,380.966125 
	C265.909210,380.738647 266.393066,381.822571 266.426666,383.035614 
	C266.499878,385.680908 266.526184,388.344666 265.371185,390.839569 
	C264.380859,392.978760 264.454163,395.893890 261.049683,396.164368 
	C257.580933,396.439972 257.328918,393.469330 256.081818,391.493042 
	C255.731155,390.937286 255.510773,390.299316 255.079086,389.305725 
z"/>
<path fill="#000000" opacity="1.000000" stroke="none" 
	d="
M120.559013,197.651489 
	C121.037743,201.581100 123.608505,202.741791 126.649757,203.506165 
	C128.528717,203.978409 131.122787,204.374420 130.034012,207.137939 
	C129.090652,209.532349 126.914787,208.141663 125.323082,207.550308 
	C122.811539,206.617203 120.464897,205.451920 118.160294,208.110138 
	C117.269676,209.137436 115.938393,208.659134 115.231590,207.548035 
	C113.993355,205.601547 117.719017,198.204956 120.559013,197.651489 
z"/>
<path fill="#000000" opacity="1.000000" stroke="none" 
	d="
M222.351608,387.119324 
	C221.865463,389.029907 221.640320,390.690460 219.463257,392.003448 
	C216.932938,387.039459 223.741592,381.224335 216.647202,377.248627 
	C221.910706,375.857117 225.083206,377.684418 229.545349,379.985443 
	C225.105209,381.255310 222.589417,383.017883 222.351608,387.119324 
z"/>
<path fill="#000000" opacity="1.000000" stroke="none" 
	d="
M367.558289,320.540588 
	C365.476807,319.434998 363.120728,319.120300 362.700409,316.286743 
	C365.359283,315.271118 367.160461,316.827484 368.848969,317.856140 
	C372.337738,319.981598 374.956940,320.116058 376.505737,315.706726 
	C376.779297,314.927856 377.382080,314.311188 378.734680,314.210663 
	C380.073639,317.804138 377.609070,320.407715 375.863556,322.796539 
	C374.263672,324.986084 372.318970,322.549042 370.571625,321.988403 
	C369.635071,321.687958 368.780243,321.132660 367.558289,320.540588 
z"/>
</svg>